<svg width="115" height="115" viewBox="0 0 115 115" fill="none" xmlns="http://www.w3.org/2000/svg">
<path fill-rule="evenodd" clip-rule="evenodd" d="M57.5 0C25.7443 0 0 25.7443 0 57.5C0 89.2557 25.7443 115 57.5 115C89.2557 115 115 89.2557 115 57.5C115 25.7443 89.2557 0 57.5 0ZM82.4236 47.7773C82.8826 47.2527 83.232 46.6416 83.4512 45.98C83.6705 45.3183 83.7553 44.6195 83.7005 43.9247C83.6457 43.2298 83.4526 42.5529 83.1323 41.9338C82.8121 41.3148 82.3713 40.766 81.8358 40.3197C81.3004 39.8735 80.6811 39.5389 80.0144 39.3356C79.3477 39.1322 78.647 39.0643 77.9537 39.1357C77.2604 39.2071 76.5883 39.4165 75.9771 39.7515C75.3658 40.0865 74.8278 40.5403 74.3945 41.0864L51.9173 68.0539L40.2866 56.418C39.3007 55.4658 37.9803 54.9389 36.6097 54.9508C35.2391 54.9627 33.9281 55.5125 32.9589 56.4816C31.9897 57.4508 31.44 58.7619 31.4281 60.1324C31.4162 61.503 31.943 62.8234 32.8952 63.8093L48.577 79.4911C49.0907 80.0044 49.7056 80.4051 50.3826 80.6676C51.0597 80.9301 51.784 81.0486 52.5094 81.0157C53.2348 80.9827 53.9453 80.799 54.5958 80.4762C55.2462 80.1534 55.8223 79.6987 56.2873 79.1409L82.4236 47.7773Z" fill="url(#paint0_linear_1_1187)"/>
<defs>
<linearGradient id="paint0_linear_1_1187" x1="57.5" y1="0" x2="57.5" y2="488.5" gradientUnits="userSpaceOnUse">
<stop stop-color="#00C4B3"/>
<stop offset="1" stop-color="#0066C4"/>
</linearGradient>
</defs>
</svg>
